<svg width="20" height="20" viewBox="0 0 20 20" fill="none" xmlns="http://www.w3.org/2000/svg">
<path d="M16.3363 6.44614L10.4801 12.2099C10.3523 12.3363 10.1798 12.4072 10.0001 12.4072C9.82032 12.4072 9.64784 12.3363 9.52006 12.2099L3.66256 6.44739C3.53368 6.32164 3.36075 6.25125 3.18069 6.25125C3.00062 6.25125 2.82769 6.32164 2.69881 6.44739C2.6355 6.50911 2.58519 6.58288 2.55083 6.66435C2.51648 6.74582 2.49878 6.83335 2.49878 6.92177C2.49878 7.01018 2.51648 7.09771 2.55083 7.17918C2.58519 7.26065 2.6355 7.33442 2.69881 7.39614L8.55381 13.1586C8.93947 13.5373 9.45834 13.7494 9.99881 13.7494C10.5393 13.7494 11.0582 13.5373 11.4438 13.1586L17.2988 7.39614C17.3623 7.3344 17.4128 7.26055 17.4473 7.17897C17.4817 7.09738 17.4995 7.00971 17.4995 6.92114C17.4995 6.83257 17.4817 6.7449 17.4473 6.66332C17.4128 6.58173 17.3623 6.50788 17.2988 6.44614C17.1699 6.32039 16.997 6.25 16.8169 6.25C16.6369 6.25 16.4639 6.32039 16.3351 6.44614" fill="black"/>
</svg>
