<svg width="30" height="30" viewBox="0 0 30 30" fill="none" xmlns="http://www.w3.org/2000/svg">
<path d="M14.9999 8.50257e-07C12.3975 -0.000875251 9.83972 0.675311 7.57775 1.96212C5.31579 3.24893 3.42752 5.10209 2.09849 7.3395C0.769456 9.57692 0.0453847 12.1216 -0.00257853 14.7235C-0.0505417 17.3255 0.579253 19.8951 1.82492 22.18L0.0499233 28.405C-0.0125335 28.6236 -0.0141974 28.8551 0.0451109 29.0745C0.104419 29.294 0.222454 29.4931 0.386511 29.6505C0.550569 29.8079 0.754437 29.9175 0.976175 29.9676C1.19791 30.0178 1.42912 30.0065 1.64492 29.935L7.48992 27.9875C9.48207 29.1387 11.7123 29.8162 14.0082 29.9675C16.3041 30.1189 18.604 29.74 20.73 28.8603C22.856 27.9806 24.7512 26.6236 26.2689 24.8943C27.7866 23.165 28.8861 21.1097 29.4824 18.8875C30.0787 16.6653 30.1558 14.3356 29.7077 12.0788C29.2596 9.82204 28.2984 7.69857 26.8984 5.8727C25.4983 4.04683 23.697 2.56751 21.6338 1.54917C19.5706 0.530828 17.3008 0.000769874 14.9999 8.50257e-07ZM9.99992 12.5C9.99992 12.1685 10.1316 11.8505 10.366 11.6161C10.6005 11.3817 10.9184 11.25 11.2499 11.25H18.7499C19.0814 11.25 19.3994 11.3817 19.6338 11.6161C19.8682 11.8505 19.9999 12.1685 19.9999 12.5C19.9999 12.8315 19.8682 13.1495 19.6338 13.3839C19.3994 13.6183 19.0814 13.75 18.7499 13.75H11.2499C10.9184 13.75 10.6005 13.6183 10.366 13.3839C10.1316 13.1495 9.99992 12.8315 9.99992 12.5ZM11.2499 16.25H16.2499C16.5814 16.25 16.8994 16.3817 17.1338 16.6161C17.3682 16.8505 17.4999 17.1685 17.4999 17.5C17.4999 17.8315 17.3682 18.1495 17.1338 18.3839C16.8994 18.6183 16.5814 18.75 16.2499 18.75H11.2499C10.9184 18.75 10.6005 18.6183 10.366 18.3839C10.1316 18.1495 9.99992 17.8315 9.99992 17.5C9.99992 17.1685 10.1316 16.8505 10.366 16.6161C10.6005 16.3817 10.9184 16.25 11.2499 16.25Z" fill="#5C2785"/>
</svg>
