<svg width="40" height="40" viewBox="0 0 40 40" fill="none" xmlns="http://www.w3.org/2000/svg">
<path d="M19.9999 5C17.3975 4.99912 14.8397 5.67531 12.5778 6.96212C10.3158 8.24893 8.42752 10.1021 7.09849 12.3395C5.76946 14.5769 5.04538 17.1216 4.99742 19.7235C4.94946 22.3255 5.57925 24.8951 6.82492 27.18L5.04992 33.405C4.98747 33.6236 4.9858 33.8551 5.04511 34.0745C5.10442 34.294 5.22245 34.4931 5.38651 34.6505C5.55057 34.8079 5.75444 34.9175 5.97617 34.9676C6.19791 35.0178 6.42912 35.0065 6.64492 34.935L12.4899 32.9875C14.4821 34.1387 16.7123 34.8162 19.0082 34.9675C21.3041 35.1189 23.604 34.74 25.73 33.8603C27.856 32.9806 29.7512 31.6236 31.2689 29.8943C32.7866 28.165 33.8861 26.1097 34.4824 23.8875C35.0787 21.6653 35.1558 19.3356 34.7077 17.0788C34.2596 14.822 33.2984 12.6986 31.8984 10.8727C30.4983 9.04684 28.697 7.56751 26.6338 6.54917C24.5706 5.53083 22.3008 5.00077 19.9999 5ZM14.9999 17.5C14.9999 17.1685 15.1316 16.8505 15.366 16.6161C15.6005 16.3817 15.9184 16.25 16.2499 16.25H23.7499C24.0814 16.25 24.3994 16.3817 24.6338 16.6161C24.8682 16.8505 24.9999 17.1685 24.9999 17.5C24.9999 17.8315 24.8682 18.1495 24.6338 18.3839C24.3994 18.6183 24.0814 18.75 23.7499 18.75H16.2499C15.9184 18.75 15.6005 18.6183 15.366 18.3839C15.1316 18.1495 14.9999 17.8315 14.9999 17.5ZM16.2499 21.25H21.2499C21.5814 21.25 21.8994 21.3817 22.1338 21.6161C22.3682 21.8505 22.4999 22.1685 22.4999 22.5C22.4999 22.8315 22.3682 23.1495 22.1338 23.3839C21.8994 23.6183 21.5814 23.75 21.2499 23.75H16.2499C15.9184 23.75 15.6005 23.6183 15.366 23.3839C15.1316 23.1495 14.9999 22.8315 14.9999 22.5C14.9999 22.1685 15.1316 21.8505 15.366 21.6161C15.6005 21.3817 15.9184 21.25 16.2499 21.25Z" fill="black" fill-opacity="0.4"/>
</svg>
