<svg width="51" height="50" viewBox="0 0 51 50" fill="none" xmlns="http://www.w3.org/2000/svg">
<circle cx="25.5" cy="25" r="23.5" stroke="#5C2785" stroke-width="3"/>
<path d="M11.6109 25.0001C11.6116 21.9551 12.6129 18.9947 14.4608 16.5745C16.3088 14.1544 18.9008 12.4085 21.8381 11.6058C24.7754 10.803 27.895 10.9877 30.717 12.1316C33.539 13.2754 35.9069 15.3149 37.4563 17.9363C39.0057 20.5577 39.6506 23.6155 39.2919 26.6393C38.9332 29.6631 37.5908 32.4853 35.4711 34.6714C33.3515 36.8575 30.5722 38.2865 27.5609 38.7384C24.5496 39.1903 21.4732 38.64 18.8053 37.1723L13.4053 38.8168C13.1644 38.8901 12.9082 38.8966 12.6639 38.8356C12.4196 38.7746 12.1965 38.6483 12.0185 38.4702C11.8404 38.2922 11.7142 38.0691 11.6531 37.8248C11.5921 37.5806 11.5986 37.3243 11.672 37.0834L13.3164 31.6751C12.1941 29.6295 11.6073 27.3333 11.6109 25.0001ZM25.4997 13.889C23.5273 13.8888 21.5905 14.4137 19.888 15.4097C18.1856 16.4057 16.7789 17.8369 15.8126 19.5564C14.8463 21.2758 14.355 23.2215 14.3894 25.1936C14.4237 27.1657 14.9824 29.0931 16.0081 30.7779C16.1099 30.9452 16.1751 31.1322 16.1996 31.3266C16.224 31.521 16.207 31.7183 16.1497 31.9057L15.0859 35.4029L18.5775 34.339C18.7655 34.2817 18.9634 34.265 19.1583 34.2899C19.3532 34.3148 19.5406 34.3808 19.7081 34.4834C21.1725 35.3775 22.824 35.9203 24.5333 36.0692C26.2425 36.2182 27.9631 35.9693 29.56 35.3421C31.157 34.7148 32.587 33.7263 33.738 32.4539C34.889 31.1815 35.7297 29.6598 36.1942 28.0081C36.6587 26.3565 36.7344 24.6197 36.4153 22.9338C36.0962 21.248 35.3911 19.659 34.3551 18.2913C33.3192 16.9236 31.9806 15.8144 30.4442 15.0506C28.9079 14.2869 27.2155 13.8893 25.4997 13.889Z" fill="#5C2785"/>
</svg>
