<svg width="60" height="60" viewBox="0 0 60 60" fill="none" xmlns="http://www.w3.org/2000/svg">
<path d="M30 24C33.1826 24 36.2348 22.7357 38.4853 20.4853C40.7357 18.2348 42 15.1826 42 12C42 8.8174 40.7357 5.76516 38.4853 3.51472C36.2348 1.26428 33.1826 0 30 0C26.8174 0 23.7652 1.26428 21.5147 3.51472C19.2643 5.76516 18 8.8174 18 12C18 15.1826 19.2643 18.2348 21.5147 20.4853C23.7652 22.7357 26.8174 24 30 24ZM10.5 33C12.4891 33 14.3968 32.2098 15.8033 30.8033C17.2098 29.3968 18 27.4891 18 25.5C18 23.5109 17.2098 21.6032 15.8033 20.1967C14.3968 18.7902 12.4891 18 10.5 18C8.51088 18 6.60322 18.7902 5.1967 20.1967C3.79018 21.6032 3 23.5109 3 25.5C3 27.4891 3.79018 29.3968 5.1967 30.8033C6.60322 32.2098 8.51088 33 10.5 33ZM57 25.5C57 27.4891 56.2098 29.3968 54.8033 30.8033C53.3968 32.2098 51.4891 33 49.5 33C47.5109 33 45.6032 32.2098 44.1967 30.8033C42.7902 29.3968 42 27.4891 42 25.5C42 23.5109 42.7902 21.6032 44.1967 20.1967C45.6032 18.7902 47.5109 18 49.5 18C51.4891 18 53.3968 18.7902 54.8033 20.1967C56.2098 21.6032 57 23.5109 57 25.5ZM30 27C33.9782 27 37.7936 28.5804 40.6066 31.3934C43.4196 34.2064 45 38.0218 45 42V60H15V42C15 38.0218 16.5804 34.2064 19.3934 31.3934C22.2064 28.5804 26.0218 27 30 27ZM9 42C9 39.921 9.3 37.914 9.864 36.018L9.354 36.06C6.78264 36.3423 4.40599 37.5639 2.67979 39.4905C0.953585 41.4172 -0.000671277 43.9132 3.54293e-07 46.5V60H9V42ZM60 60V46.5C60.0003 43.8251 58.9798 41.2509 57.1466 39.3029C55.3135 37.3549 52.806 36.18 50.136 36.018C50.697 37.914 51 39.921 51 42V60H60Z" fill="#5C2785"/>
</svg>
