<svg width="92" height="92" viewBox="0 0 92 92" fill="none" xmlns="http://www.w3.org/2000/svg">
<path d="M27.9286 31.2143C31.1964 31.2143 34.3304 29.9161 36.6411 27.6054C38.9518 25.2947 40.25 22.1607 40.25 18.8928C40.25 15.625 38.9518 12.491 36.6411 10.1803C34.3304 7.86956 31.1964 6.57141 27.9286 6.57141C24.6607 6.57141 21.5267 7.86956 19.216 10.1803C16.9053 12.491 15.6071 15.625 15.6071 18.8928C15.6071 22.1607 16.9053 25.2947 19.216 27.6054C21.5267 29.9161 24.6607 31.2143 27.9286 31.2143ZM6.57141 42.6551C6.57141 39.0573 9.48584 36.1428 13.0837 36.1428H31.4837C30.0437 39.7759 30.0191 43.8169 31.4147 47.4673C32.8104 51.1176 35.5247 54.1115 39.0211 55.8571H31.1584C29.2167 55.8573 27.3187 56.4342 25.7053 57.5146C24.092 58.5951 22.8359 60.1304 22.0964 61.9258C15.5086 60.7068 11.5591 57.4178 9.30184 53.7444C6.57141 49.3186 6.57141 44.7448 6.57141 43.9563V42.6551ZM52.9756 55.8571H60.8448C64.9356 55.8571 68.4414 58.3641 69.9068 61.9258C76.4947 60.7068 80.4441 57.4178 82.7014 53.7444C85.4286 49.3153 85.4286 44.7416 85.4286 43.953V42.6551C85.4286 40.928 84.7424 39.2715 83.5211 38.0502C82.2999 36.829 80.6434 36.1428 78.9163 36.1428H60.5163C61.9563 39.7759 61.9809 43.8169 60.5852 47.4673C59.1896 51.1176 56.4753 54.1115 52.9788 55.8571M76.3928 18.8928C76.3928 22.1607 75.0947 25.2947 72.784 27.6054C70.4733 29.9161 67.3393 31.2143 64.0714 31.2143C60.8036 31.2143 57.6696 29.9161 55.3588 27.6054C53.0481 25.2947 51.75 22.1607 51.75 18.8928C51.75 15.625 53.0481 12.491 55.3588 10.1803C57.6696 7.86956 60.8036 6.57141 64.0714 6.57141C67.3393 6.57141 70.4733 7.86956 72.784 10.1803C75.0947 12.491 76.3928 15.625 76.3928 18.8928ZM24.6428 65.6551C24.6428 62.0573 27.5573 59.1428 31.1551 59.1428H60.8448C64.4427 59.1428 67.3571 62.0573 67.3571 65.6551V66.953C67.3571 67.7416 67.3571 72.3153 64.63 76.7444C61.7714 81.397 56.2054 85.4286 46 85.4286C35.7946 85.4286 30.2286 81.3937 27.37 76.7477C24.6428 72.3153 24.6428 67.7448 24.6428 66.953V65.6551ZM46 54.2143C49.2678 54.2143 52.4018 52.9161 54.7126 50.6054C57.0233 48.2947 58.3214 45.1607 58.3214 41.8928C58.3214 38.625 57.0233 35.491 54.7126 33.1803C52.4018 30.8696 49.2678 29.5714 46 29.5714C42.7321 29.5714 39.5981 30.8696 37.2874 33.1803C34.9767 35.491 33.6786 38.625 33.6786 41.8928C33.6786 45.1607 34.9767 48.2947 37.2874 50.6054C39.5981 52.9161 42.7321 54.2143 46 54.2143Z" fill="#5C2785"/>
</svg>
