<svg width="25" height="25" viewBox="0 0 25 25" fill="none" xmlns="http://www.w3.org/2000/svg">
<path d="M19.7917 13.5415L11.4583 13.5415V11.4582L19.7917 11.4582V8.33317L25 12.4998L19.7917 16.6665V13.5415ZM20.8333 6.24984H18.0125C16.8097 5.18907 15.3264 4.4979 13.7405 4.25927C12.1546 4.02064 10.5336 4.24469 9.07187 4.90452C7.61017 5.56436 6.36992 6.63195 5.49993 7.97919C4.62994 9.32644 4.16719 10.8961 4.16719 12.4998C4.16719 14.1036 4.62994 15.6732 5.49993 17.0205C6.36992 18.3677 7.61017 19.4353 9.07187 20.0951C10.5336 20.755 12.1546 20.979 13.7405 20.7404C15.3264 20.5018 16.8097 19.8106 18.0125 18.7498H20.8333C19.8639 20.0444 18.6059 21.0951 17.1593 21.8184C15.7127 22.5417 14.1174 22.9177 12.5 22.9165C6.74688 22.9165 2.08333 18.253 2.08333 12.4998C2.08333 6.74671 6.74688 2.08317 12.5 2.08317C14.1174 2.08195 15.7127 2.45793 17.1593 3.18123C18.6059 3.90454 19.8639 4.95523 20.8333 6.24984Z" fill="#BA0000"/>
</svg>
