<svg width="25" height="25" viewBox="0 0 25 25" fill="none" xmlns="http://www.w3.org/2000/svg">
<path d="M22.9166 19.3802C22.9166 19.5874 22.8343 19.7861 22.6878 19.9326C22.5412 20.0791 22.3425 20.1615 22.1353 20.1615H16.8228C16.6488 20.8103 16.2656 21.3836 15.7326 21.7925C15.1997 22.2013 14.5467 22.423 13.8749 22.423C13.2032 22.423 12.5502 22.2013 12.0172 21.7925C11.4842 21.3836 11.101 20.8103 10.927 20.1615H2.8645C2.6573 20.1615 2.45859 20.0791 2.31207 19.9326C2.16556 19.7861 2.08325 19.5874 2.08325 19.3802C2.08325 19.173 2.16556 18.9743 2.31207 18.8278C2.45859 18.6813 2.6573 18.599 2.8645 18.599H10.927C11.101 17.9501 11.4842 17.3768 12.0172 16.9679C12.5502 16.5591 13.2032 16.3374 13.8749 16.3374C14.5467 16.3374 15.1997 16.5591 15.7326 16.9679C16.2656 17.3768 16.6488 17.9501 16.8228 18.599H22.1353C22.3425 18.599 22.5412 18.6813 22.6878 18.8278C22.8343 18.9743 22.9166 19.173 22.9166 19.3802ZM22.9166 5.61979C22.9166 5.82699 22.8343 6.0257 22.6878 6.17222C22.5412 6.31873 22.3425 6.40104 22.1353 6.40104H19.5833C19.4092 7.04987 19.026 7.62317 18.4931 8.03205C17.9601 8.44093 17.3071 8.66255 16.6353 8.66255C15.9636 8.66255 15.3106 8.44093 14.7776 8.03205C14.2446 7.62317 13.8614 7.04987 13.6874 6.40104H2.8645C2.76191 6.40104 2.66032 6.38083 2.56553 6.34157C2.47074 6.30231 2.38462 6.24476 2.31207 6.17222C2.23953 6.09967 2.18198 6.01355 2.14272 5.91876C2.10346 5.82398 2.08325 5.72239 2.08325 5.61979C2.08325 5.5172 2.10346 5.4156 2.14272 5.32082C2.18198 5.22603 2.23953 5.13991 2.31207 5.06736C2.38462 4.99482 2.47074 4.93727 2.56553 4.89801C2.66032 4.85875 2.76191 4.83854 2.8645 4.83854H13.6874C13.8614 4.18971 14.2446 3.61641 14.7776 3.20753C15.3106 2.79865 15.9636 2.57703 16.6353 2.57703C17.3071 2.57703 17.9601 2.79865 18.4931 3.20753C19.026 3.61641 19.4092 4.18971 19.5833 4.83854H22.1353C22.2383 4.83714 22.3405 4.85639 22.436 4.89515C22.5314 4.93392 22.6181 4.99141 22.6909 5.06424C22.7637 5.13707 22.8212 5.22375 22.86 5.31917C22.8987 5.41459 22.918 5.51681 22.9166 5.61979ZM22.9166 12.4948C22.918 12.5978 22.8987 12.7 22.86 12.7954C22.8212 12.8908 22.7637 12.9775 22.6909 13.0503C22.6181 13.1232 22.5314 13.1807 22.436 13.2194C22.3405 13.2582 22.2383 13.2774 22.1353 13.276H9.94784C9.77383 13.9249 9.39063 14.4982 8.85765 14.9071C8.32467 15.3159 7.67167 15.5376 6.99992 15.5376C6.32816 15.5376 5.67517 15.3159 5.14219 14.9071C4.6092 14.4982 4.226 13.9249 4.052 13.276H2.8645C2.6573 13.276 2.45859 13.1937 2.31207 13.0472C2.16556 12.9007 2.08325 12.702 2.08325 12.4948C2.08325 12.2876 2.16556 12.0889 2.31207 11.9424C2.45859 11.7959 2.6573 11.7135 2.8645 11.7135H4.052C4.226 11.0647 4.6092 10.4914 5.14219 10.0825C5.67517 9.67365 6.32816 9.45203 6.99992 9.45203C7.67167 9.45203 8.32467 9.67365 8.85765 10.0825C9.39063 10.4914 9.77383 11.0647 9.94784 11.7135H22.1353C22.3425 11.7135 22.5412 11.7959 22.6878 11.9424C22.8343 12.0889 22.9166 12.2876 22.9166 12.4948Z" fill="#5C2785"/>
</svg>
