<svg width="26" height="26" viewBox="0 0 26 26" fill="none" xmlns="http://www.w3.org/2000/svg">
<g clip-path="url(#clip0_224_57)">
<path d="M9.20901 1.32222C6.71112 2.18876 4.55695 3.83349 3.0629 6.01481C1.56885 8.19613 0.813682 10.7991 0.908313 13.4413C1.00294 16.0835 1.94239 18.6258 3.58865 20.6946C5.23492 22.7635 7.50124 24.2499 10.0547 24.9355C12.1249 25.4697 14.2938 25.4931 16.375 25.0039C18.2604 24.5804 20.0035 23.6745 21.4336 22.375C22.9221 20.9811 24.0024 19.2079 24.5586 17.2461C25.1629 15.1126 25.2705 12.869 24.8731 10.6875H13.2481V15.5097H19.9805C19.8459 16.2788 19.5576 17.0129 19.1327 17.668C18.7079 18.3231 18.1552 18.8857 17.5078 19.3222C16.6858 19.8662 15.7591 20.2322 14.7871 20.3964C13.8124 20.5777 12.8126 20.5777 11.8379 20.3964C10.8499 20.1924 9.91534 19.7846 9.09378 19.1992C7.77375 18.2648 6.7826 16.9373 6.26175 15.4062C5.73223 13.8464 5.73223 12.1555 6.26175 10.5957C6.6325 9.50233 7.24541 8.50686 8.05471 7.68355C8.98087 6.72407 10.1534 6.03823 11.4437 5.70128C12.734 5.36432 14.0921 5.38928 15.3692 5.7734C16.3668 6.0795 17.2791 6.61456 18.0332 7.3359C18.7923 6.58069 19.5502 5.82353 20.3067 5.06441C20.6973 4.65621 21.1231 4.26754 21.5078 3.84957C20.3565 2.77831 19.0052 1.94469 17.5313 1.39644C14.8471 0.421813 11.9101 0.395621 9.20901 1.32222Z" fill="white"/>
<path d="M9.20898 1.32232C11.9099 0.395086 14.8469 0.420589 17.5312 1.39458C19.0055 1.94656 20.3562 2.78419 21.5059 3.85943C21.1152 4.2774 20.7031 4.66802 20.3047 5.07427C19.5469 5.83078 18.7897 6.58469 18.0332 7.33599C17.2791 6.61466 16.3668 6.07959 15.3691 5.77349C14.0925 5.38802 12.7344 5.36163 11.4438 5.69721C10.1532 6.03278 8.97991 6.71736 8.05273 7.67583C7.24342 8.49915 6.63052 9.49462 6.25977 10.5879L2.21094 7.45318C3.66017 4.57927 6.16943 2.38096 9.20898 1.32232Z" fill="#E33629"/>
<path d="M1.13671 10.5586C1.35417 9.48002 1.71547 8.43553 2.21093 7.45312L6.25976 10.5957C5.73025 12.1555 5.73025 13.8464 6.25976 15.4063C4.9108 16.4479 3.56119 17.4948 2.21093 18.5469C0.970992 16.0787 0.592832 13.2666 1.13671 10.5586Z" fill="#F8BD00"/>
<path d="M13.2479 10.6855H24.8729C25.2704 12.8671 25.1628 15.1106 24.5585 17.2441C24.0023 19.206 22.9219 20.9792 21.4335 22.373C20.1268 21.3535 18.8143 20.3418 17.5077 19.3223C18.1555 18.8853 18.7084 18.3221 19.1333 17.6663C19.5582 17.0105 19.8463 16.2757 19.9804 15.5059H13.2479C13.246 13.9004 13.2479 12.293 13.2479 10.6855Z" fill="#587DBD"/>
<path d="M2.20898 18.5469C3.55924 17.5052 4.90885 16.4583 6.25781 15.4062C6.7797 16.9379 7.77228 18.2654 9.09375 19.1992C9.91787 19.782 10.8545 20.1864 11.8438 20.3867C12.8185 20.568 13.8183 20.568 14.793 20.3867C15.7649 20.2224 16.6917 19.8565 17.5137 19.3125C18.8203 20.332 20.1328 21.3438 21.4395 22.3633C20.0096 23.6635 18.2664 24.5701 16.3809 24.9941C14.2996 25.4834 12.1307 25.46 10.0605 24.9258C8.42325 24.4886 6.8939 23.718 5.56836 22.6621C4.16548 21.5481 3.0196 20.1444 2.20898 18.5469Z" fill="#319F43"/>
</g>
<defs>
<clipPath id="clip0_224_57">
<rect width="25" height="25" fill="white" transform="translate(0.5 0.5)"/>
</clipPath>
</defs>
</svg>
