<svg width="92" height="92" viewBox="0 0 92 92" fill="none" xmlns="http://www.w3.org/2000/svg">
<path d="M15.6975 76.8775L27.853 72.8238L29.9805 73.8875C34.868 76.3255 40.3018 77.625 46 77.625C65.0325 77.625 80.5 62.6405 80.5 46C80.5 29.3595 65.0325 14.375 46 14.375C26.9675 14.375 11.5 29.3595 11.5 46C11.5 52.21 13.7425 58.512 17.8653 63.8997L19.849 66.4872L15.6918 76.8717L15.6975 76.8775ZM11.6322 84.295C11.1119 84.4693 10.5526 84.4911 10.0202 84.3578C9.48792 84.2244 9.00489 83.9415 8.6282 83.5424C8.25152 83.1434 7.99691 82.6448 7.89445 82.1057C7.79199 81.5666 7.84597 81.0094 8.05 80.5L13.294 67.39C8.51 61.1225 5.75 53.6245 5.75 46C5.75 26.9445 23 8.625 46 8.625C69 8.625 86.25 26.9445 86.25 46C86.25 65.0555 69 83.375 46 83.375C39.5495 83.3932 33.1838 81.9047 27.4103 79.028L11.6322 84.2893V84.295Z" fill="#5C2785"/>
<path d="M46 50.6C45.3959 50.6 44.7978 50.481 44.2397 50.2499C43.6816 50.0187 43.1745 49.6799 42.7473 49.2527C42.3202 48.8256 41.9813 48.3185 41.7501 47.7604C41.519 47.2023 41.4 46.6041 41.4 46C41.4 45.3959 41.519 44.7978 41.7501 44.2397C41.9813 43.6816 42.3202 43.1745 42.7473 42.7473C43.1745 42.3202 43.6816 41.9814 44.2397 41.7502C44.7978 41.519 45.3959 41.4 46 41.4C47.22 41.4 48.39 41.8847 49.2527 42.7473C50.1154 43.61 50.6 44.78 50.6 46C50.6 47.22 50.1154 48.39 49.2527 49.2527C48.39 50.1154 47.22 50.6 46 50.6ZM63.25 50.6C62.6459 50.6 62.0478 50.481 61.4897 50.2499C60.9316 50.0187 60.4245 49.6799 59.9973 49.2527C59.5702 48.8256 59.2313 48.3185 59.0002 47.7604C58.769 47.2023 58.65 46.6041 58.65 46C58.65 45.3959 58.769 44.7978 59.0002 44.2397C59.2313 43.6816 59.5702 43.1745 59.9973 42.7473C60.4245 42.3202 60.9316 41.9814 61.4897 41.7502C62.0478 41.519 62.6459 41.4 63.25 41.4C64.47 41.4 65.64 41.8847 66.5027 42.7473C67.3654 43.61 67.85 44.78 67.85 46C67.85 47.22 67.3654 48.39 66.5027 49.2527C65.64 50.1154 64.47 50.6 63.25 50.6ZM28.75 50.6C28.1459 50.6 27.5477 50.481 26.9897 50.2499C26.4316 50.0187 25.9245 49.6799 25.4973 49.2527C25.0702 48.8256 24.7313 48.3185 24.5001 47.7604C24.269 47.2023 24.15 46.6041 24.15 46C24.15 45.3959 24.269 44.7978 24.5001 44.2397C24.7313 43.6816 25.0702 43.1745 25.4973 42.7473C25.9245 42.3202 26.4316 41.9814 26.9897 41.7502C27.5477 41.519 28.1459 41.4 28.75 41.4C29.97 41.4 31.14 41.8847 32.0027 42.7473C32.8654 43.61 33.35 44.78 33.35 46C33.35 47.22 32.8654 48.39 32.0027 49.2527C31.14 50.1154 29.97 50.6 28.75 50.6Z" fill="#5C2785"/>
</svg>
