<svg width="51" height="50" viewBox="0 0 51 50" fill="none" xmlns="http://www.w3.org/2000/svg">
<path d="M15.5 36.9667L25.5 26.9667L35.5 36.9667L37.4667 35L27.4667 25L37.4667 15L35.5 13.0333L25.5 23.0333L15.5 13.0333L13.5333 15L23.5333 25L13.5333 35L15.5 36.9667ZM25.5083 50C22.0528 50 18.8028 49.3444 15.7583 48.0333C12.7157 46.7204 10.0685 44.9389 7.81667 42.6889C5.56481 40.4407 3.78241 37.7963 2.46944 34.7556C1.15648 31.7148 0.5 28.4657 0.5 25.0083C0.5 21.5528 1.15556 18.3028 2.46667 15.2583C3.77963 12.2157 5.56111 9.56852 7.81111 7.31667C10.0593 5.06481 12.7037 3.28241 15.7444 1.96944C18.7852 0.656482 22.0343 0 25.4917 0C28.9472 0 32.1972 0.655555 35.2417 1.96667C38.2843 3.27963 40.9315 5.06111 43.1833 7.31111C45.4352 9.55926 47.2176 12.2037 48.5306 15.2444C49.8435 18.2852 50.5 21.5343 50.5 24.9917C50.5 28.4472 49.8444 31.6972 48.5333 34.7417C47.2204 37.7843 45.4389 40.4315 43.1889 42.6833C40.9407 44.9352 38.2963 46.7176 35.2556 48.0306C32.2148 49.3435 28.9657 50 25.5083 50ZM25.5 47.2222C31.7037 47.2222 36.9583 45.0694 41.2639 40.7639C45.5694 36.4583 47.7222 31.2037 47.7222 25C47.7222 18.7963 45.5694 13.5417 41.2639 9.23611C36.9583 4.93055 31.7037 2.77778 25.5 2.77778C19.2963 2.77778 14.0417 4.93055 9.73611 9.23611C5.43055 13.5417 3.27778 18.7963 3.27778 25C3.27778 31.2037 5.43055 36.4583 9.73611 40.7639C14.0417 45.0694 19.2963 47.2222 25.5 47.2222Z" fill="#B40101"/>
</svg>
