<svg width="25" height="25" viewBox="0 0 25 25" fill="none" xmlns="http://www.w3.org/2000/svg">
<path d="M9.37508 16.6667C9.37508 16.9429 9.26533 17.2079 9.06998 17.4032C8.87463 17.5986 8.60968 17.7083 8.33341 17.7083C8.05715 17.7083 7.7922 17.5986 7.59685 17.4032C7.40149 17.2079 7.29175 16.9429 7.29175 16.6667C7.29175 16.3904 7.40149 16.1254 7.59685 15.9301C7.7922 15.7347 8.05715 15.625 8.33341 15.625C8.60968 15.625 8.87463 15.7347 9.06998 15.9301C9.26533 16.1254 9.37508 16.3904 9.37508 16.6667ZM13.5417 16.6667C13.5417 16.9429 13.432 17.2079 13.2367 17.4032C13.0413 17.5986 12.7763 17.7083 12.5001 17.7083C12.2238 17.7083 11.9589 17.5986 11.7635 17.4032C11.5682 17.2079 11.4584 16.9429 11.4584 16.6667C11.4584 16.3904 11.5682 16.1254 11.7635 15.9301C11.9589 15.7347 12.2238 15.625 12.5001 15.625C12.7763 15.625 13.0413 15.7347 13.2367 15.9301C13.432 16.1254 13.5417 16.3904 13.5417 16.6667ZM16.6667 17.7083C16.943 17.7083 17.208 17.5986 17.4033 17.4032C17.5987 17.2079 17.7084 16.9429 17.7084 16.6667C17.7084 16.3904 17.5987 16.1254 17.4033 15.9301C17.208 15.7347 16.943 15.625 16.6667 15.625C16.3905 15.625 16.1255 15.7347 15.9302 15.9301C15.7348 16.1254 15.6251 16.3904 15.6251 16.6667C15.6251 16.9429 15.7348 17.2079 15.9302 17.4032C16.1255 17.5986 16.3905 17.7083 16.6667 17.7083Z" fill="#5C2785"/>
<path fill-rule="evenodd" clip-rule="evenodd" d="M5.46867 8.33337V9.69067C5.23221 9.70733 5.01033 9.72816 4.79992 9.75733C3.86242 9.88233 3.07284 10.1532 2.44575 10.7792C1.81867 11.4063 1.54992 12.1959 1.42388 13.1334C1.302 14.0365 1.302 15.1855 1.302 16.6094V16.724C1.302 18.148 1.302 19.2969 1.42388 20.2C1.54888 21.1375 1.81971 21.9271 2.44575 22.5542C3.07284 23.1813 3.86242 23.45 4.79992 23.5771C5.70304 23.698 6.852 23.698 8.27596 23.698H16.7239C18.1478 23.698 19.2968 23.698 20.1999 23.5771C21.1374 23.45 21.927 23.1813 22.5541 22.5542C23.1812 21.9271 23.4499 21.1375 23.577 20.2C23.6978 19.2969 23.6978 18.148 23.6978 16.724V16.6094C23.6978 15.1855 23.6978 14.0365 23.577 13.1334C23.4499 12.1959 23.1812 11.4063 22.5541 10.7792C21.927 10.1521 21.1374 9.88337 20.1999 9.75733C19.9778 9.72807 19.7547 9.70584 19.5312 9.69067V8.33337C19.5312 6.46857 18.7904 4.68014 17.4718 3.36153C16.1531 2.04291 14.3647 1.30212 12.4999 1.30212C10.6351 1.30212 8.84669 2.04291 7.52807 3.36153C6.20946 4.68014 5.46867 6.46857 5.46867 8.33337ZM12.4999 2.86462C11.0495 2.86462 9.65852 3.44079 8.63293 4.46638C7.60734 5.49197 7.03117 6.88297 7.03117 8.33337V9.63858C7.41971 9.63546 7.83534 9.63546 8.27596 9.63546H16.7239C17.1645 9.63546 17.5801 9.63546 17.9687 9.63858V8.33337C17.9687 5.31254 15.5208 2.86462 12.4999 2.86462ZM5.00825 11.3052C4.24367 11.4084 3.8395 11.5969 3.55096 11.8844C3.26242 12.173 3.07492 12.5771 2.97179 13.3427C2.86659 14.1292 2.8645 15.1719 2.8645 16.6667C2.8645 18.1615 2.86659 19.2042 2.97179 19.9917C3.07492 20.7563 3.26346 21.1605 3.55096 21.449C3.8395 21.7375 4.24367 21.925 5.00929 22.0282C5.79471 22.1334 6.83846 22.1355 8.33325 22.1355H16.6666C18.1614 22.1355 19.2041 22.1334 19.9916 22.0282C20.7562 21.925 21.1603 21.7365 21.4489 21.449C21.7374 21.1605 21.9249 20.7563 22.028 19.9907C22.1333 19.2042 22.1353 18.1615 22.1353 16.6667C22.1353 15.1719 22.1333 14.1282 22.028 13.3417C21.9249 12.5771 21.7364 12.173 21.4489 11.8844C21.1603 11.5959 20.7562 11.4084 19.9905 11.3052C19.2041 11.2 18.1614 11.198 16.6666 11.198H8.33325C6.83846 11.198 5.79471 11.2 5.00825 11.3052Z" fill="#5C2785"/>
</svg>
