<svg width="60" height="60" viewBox="0 0 60 60" fill="none" xmlns="http://www.w3.org/2000/svg">
<path d="M30 60C22.0435 60 14.4129 56.8393 8.7868 51.2132C3.16071 45.5871 0 37.9565 0 30C0 22.0435 3.16071 14.4129 8.7868 8.7868C14.4129 3.16071 22.0435 0 30 0C37.9565 0 45.5871 3.16071 51.2132 8.7868C56.8393 14.4129 60 22.0435 60 30C60 37.9565 56.8393 45.5871 51.2132 51.2132C45.5871 56.8393 37.9565 60 30 60ZM53.25 36C54.2648 32.0644 54.2648 27.9356 53.25 24H41.79C42.068 27.9952 42.068 32.0048 41.79 36H53.25ZM50.79 42H41.13C40.6275 45.6161 39.6699 49.1541 38.28 52.53C43.5502 50.5859 47.9752 46.8612 50.79 42ZM24.24 36H35.76C36.0856 32.0066 36.0856 27.9934 35.76 24H24.24C23.9144 27.9934 23.9144 32.0066 24.24 36ZM24.99 42C26.22 49.2 28.38 54 30 54C31.62 54 33.78 49.2 35.01 42H24.99ZM6.75 36H18.21C17.932 32.0048 17.932 27.9952 18.21 24H6.75C5.73518 27.9356 5.73518 32.0644 6.75 36ZM9.21 42C12.0248 46.8612 16.4498 50.5859 21.72 52.53C20.46 49.65 19.5 46.05 18.87 42H9.21ZM50.79 18C47.9752 13.1388 43.5502 9.41411 38.28 7.47C39.54 10.35 40.5 13.95 41.13 18H50.79ZM24.99 18H35.01C33.78 10.8 31.62 6 30 6C28.38 6 26.22 10.8 24.99 18ZM9.21 18H18.87C19.47 13.95 20.46 10.35 21.72 7.47C16.4498 9.41411 12.0248 13.1388 9.21 18Z" fill="#5C2785"/>
</svg>
