<svg width="101" height="100" viewBox="0 0 101 100" fill="none" xmlns="http://www.w3.org/2000/svg">
<path d="M17.1667 50.0001C17.1667 41.1595 20.6786 32.6811 26.9299 26.4299C33.1811 20.1786 41.6595 16.6667 50.5001 16.6667C59.3406 16.6667 67.8191 20.1786 74.0703 26.4299C80.3215 32.6811 83.8334 41.1595 83.8334 50.0001V71.2084C83.8334 74.7417 83.8334 76.5001 83.3084 77.9126C82.891 79.0319 82.2377 80.0483 81.393 80.893C80.5483 81.7377 79.5319 82.391 78.4126 82.8084C77.0001 83.3334 75.2376 83.3334 71.7084 83.3334H50.5001C41.6595 83.3334 33.1811 79.8215 26.9299 73.5703C20.6786 67.3191 17.1667 58.8406 17.1667 50.0001Z" stroke="black" stroke-opacity="0.3" stroke-width="3"/>
<path d="M38 45.8335H63M50.5 62.5002H63" stroke="black" stroke-opacity="0.3" stroke-width="3" stroke-linecap="round" stroke-linejoin="round"/>
</svg>
