<svg width="26" height="33" viewBox="0 0 26 33" fill="none" xmlns="http://www.w3.org/2000/svg">
<path d="M13 32.6667C14.8333 32.6667 16.3333 31.1667 16.3333 29.3334H9.66666C9.66666 30.2175 10.0178 31.0653 10.643 31.6904C11.2681 32.3156 12.1159 32.6667 13 32.6667ZM23 22.6667V14.3334C23 9.21675 20.2667 4.93341 15.5 3.80008V2.66675C15.5 1.28341 14.3833 0.166748 13 0.166748C11.6167 0.166748 10.5 1.28341 10.5 2.66675V3.80008C5.71666 4.93341 2.99999 9.20008 2.99999 14.3334V22.6667L0.849994 24.8167C-0.200006 25.8667 0.533327 27.6667 2.01666 27.6667H23.9667C25.45 27.6667 26.2 25.8667 25.15 24.8167L23 22.6667Z" fill="#5C2785"/>
</svg>
