<svg width="40" height="40" viewBox="0 0 40 40" fill="none" xmlns="http://www.w3.org/2000/svg">
<path d="M20.0001 36.6667C21.8334 36.6667 23.3334 35.1667 23.3334 33.3334H16.6668C16.6668 34.2175 17.0179 35.0653 17.6431 35.6904C18.2682 36.3156 19.116 36.6667 20.0001 36.6667ZM30.0001 26.6667V18.3334C30.0001 13.2167 27.2668 8.93341 22.5001 7.80008V6.66675C22.5001 5.28341 21.3834 4.16675 20.0001 4.16675C18.6168 4.16675 17.5001 5.28341 17.5001 6.66675V7.80008C12.7168 8.93341 10.0001 13.2001 10.0001 18.3334V26.6667L7.85009 28.8167C6.80009 29.8667 7.53342 31.6667 9.01675 31.6667H30.9668C32.4501 31.6667 33.2001 29.8667 32.1501 28.8167L30.0001 26.6667Z" fill="black" fill-opacity="0.4"/>
</svg>
