<svg width="54" height="54" viewBox="0 0 54 54" fill="none" xmlns="http://www.w3.org/2000/svg">
<path d="M51.275 18.7749C54.4 15.6499 52.975 11.9999 51.275 10.2249L43.775 2.72494C40.625 -0.400055 37 1.02494 35.225 2.72494L30.975 6.99994H24.5C19.75 6.99994 17 9.49994 15.6 12.3749L4.5 23.4749V33.4749L2.725 35.2249C-0.399998 38.3749 1.025 41.9999 2.725 43.7749L10.225 51.2749C11.575 52.6249 13.025 53.1249 14.4 53.1249C16.175 53.1249 17.8 52.2499 18.775 51.2749L25.525 44.4999H34.5C38.75 44.4999 40.9 41.8499 41.675 39.2499C44.5 38.4999 46.05 36.3499 46.675 34.2499C50.55 33.2499 52 29.5749 52 26.9999V19.4999H50.525L51.275 18.7749ZM47 26.9999C47 28.1249 46.525 29.4999 44.5 29.4999H42V31.9999C42 33.1249 41.525 34.4999 39.5 34.4999H37V36.9999C37 38.1249 36.525 39.4999 34.5 39.4999H23.475L15.275 47.6999C14.5 48.4249 14.05 47.9999 13.775 47.7249L6.3 40.2749C5.575 39.4999 6 39.0499 6.275 38.7749L9.5 35.5249V25.5249L14.5 20.5249V24.4999C14.5 27.5249 16.5 31.9999 22 31.9999C27.5 31.9999 29.5 27.5249 29.5 24.4999H47V26.9999ZM47.725 15.2249L43.475 19.4999H24.5V24.4999C24.5 25.6249 24.025 26.9999 22 26.9999C19.975 26.9999 19.5 25.6249 19.5 24.4999V16.9999C19.5 15.8499 19.925 11.9999 24.5 11.9999H33.025L38.725 6.29994C39.5 5.57494 39.95 5.99994 40.225 6.27494L47.7 13.7249C48.425 14.4999 48 14.9499 47.725 15.2249Z" fill="#5C2785"/>
</svg>
