<svg width="60" height="60" viewBox="0 0 60 60" fill="none" xmlns="http://www.w3.org/2000/svg">
<path d="M43.125 30C44.6168 30 46.0476 30.5926 47.1025 31.6475C48.1574 32.7024 48.75 34.1332 48.75 35.625V37.5C48.75 44.8913 41.775 52.5 30 52.5C18.225 52.5 11.25 44.8913 11.25 37.5V35.625C11.25 34.1332 11.8426 32.7024 12.8975 31.6475C13.9524 30.5926 15.3832 30 16.875 30H43.125ZM30 5.625C32.735 5.625 35.3581 6.71149 37.292 8.64546C39.226 10.5794 40.3125 13.2025 40.3125 15.9375C40.3125 18.6725 39.226 21.2956 37.292 23.2295C35.3581 25.1635 32.735 26.25 30 26.25C27.265 26.25 24.6419 25.1635 22.708 23.2295C20.774 21.2956 19.6875 18.6725 19.6875 15.9375C19.6875 13.2025 20.774 10.5794 22.708 8.64546C24.6419 6.71149 27.265 5.625 30 5.625Z" fill="#5C2785"/>
</svg>
