<svg width="34" height="34" viewBox="0 0 34 34" fill="none" xmlns="http://www.w3.org/2000/svg">
<path d="M6.99997 0.333255H10.4866L6.98997 10.3333H0.969971L5.50997 1.25326C5.64852 0.976765 5.86127 0.744277 6.12441 0.5818C6.38755 0.419323 6.69071 0.333266 6.99997 0.333255ZM1.08997 13.6666L11.1366 29.2899L6.89997 13.6666H1.08997ZM10.3533 13.6666L15.4533 32.4833C15.5437 32.8245 15.7444 33.1263 16.0241 33.3416C16.3039 33.5569 16.647 33.6736 17 33.6736C17.353 33.6736 17.6961 33.5569 17.9758 33.3416C18.2556 33.1263 18.4563 32.8245 18.5466 32.4833L23.66 13.6666H10.3533ZM27.1133 13.6666L22.8666 29.2833L32.91 13.6666H27.1133ZM33.03 10.3333H27.02L23.52 0.333255H27C27.3098 0.332646 27.6137 0.418412 27.8774 0.580923C28.1412 0.743435 28.3545 0.976258 28.4933 1.25326L33.03 10.3333ZM23.49 10.3333H10.5233L14.0166 0.333255H19.9833L23.49 10.3333Z" fill="#5C2785"/>
</svg>
