<svg width="40" height="40" viewBox="0 0 40 40" fill="none" xmlns="http://www.w3.org/2000/svg">
<path d="M9.99997 3.33326H13.4866L9.98997 13.3333H3.96997L8.50997 4.25326C8.64852 3.97677 8.86127 3.74428 9.12441 3.5818C9.38755 3.41932 9.69071 3.33327 9.99997 3.33326ZM4.08997 16.6666L14.1366 32.2899L9.89997 16.6666H4.08997ZM13.3533 16.6666L18.4533 35.4833C18.5437 35.8245 18.7444 36.1263 19.0241 36.3416C19.3039 36.5569 19.647 36.6736 20 36.6736C20.353 36.6736 20.6961 36.5569 20.9758 36.3416C21.2556 36.1263 21.4563 35.8245 21.5466 35.4833L26.66 16.6666H13.3533ZM30.1133 16.6666L25.8666 32.2833L35.91 16.6666H30.1133ZM36.03 13.3333H30.02L26.52 3.33326H30C30.3098 3.33265 30.6137 3.41841 30.8774 3.58092C31.1412 3.74343 31.3545 3.97626 31.4933 4.25326L36.03 13.3333ZM26.49 13.3333H13.5233L17.0166 3.33326H22.9833L26.49 13.3333Z" fill="black" fill-opacity="0.4"/>
</svg>
