<svg width="92" height="92" viewBox="0 0 92 92" fill="none" xmlns="http://www.w3.org/2000/svg">
<path d="M17.25 60.375V57.5H11.5V60.375C11.5 65.7125 13.6203 70.8314 17.3945 74.6055C21.1686 78.3797 26.2875 80.5 31.625 80.5H40.25V74.75H31.625C27.8125 74.75 24.1562 73.2355 21.4603 70.5397C18.7645 67.8438 17.25 64.1875 17.25 60.375ZM69 31.625V34.5H74.75V31.625C74.75 26.2875 72.6297 21.1687 68.8555 17.3945C65.0814 13.6203 59.9625 11.5 54.625 11.5H46V17.25H54.625C56.5128 17.25 58.382 17.6218 60.1261 18.3442C61.8701 19.0666 63.4548 20.1255 64.7897 21.4603C66.1245 22.7952 67.1834 24.3799 67.9058 26.1239C68.6282 27.868 69 29.7373 69 31.625ZM31.625 31.625H14.375C12.0875 31.625 9.89371 32.5337 8.2762 34.1512C6.6587 35.7687 5.75 37.9625 5.75 40.25V46H11.5V40.25C11.5 39.4875 11.8029 38.7562 12.3421 38.2171C12.8812 37.6779 13.6125 37.375 14.375 37.375H31.625C32.3875 37.375 33.1188 37.6779 33.6579 38.2171C34.1971 38.7562 34.5 39.4875 34.5 40.25V46H40.25V40.25C40.25 37.9625 39.3413 35.7687 37.7238 34.1512C36.1063 32.5337 33.9125 31.625 31.625 31.625ZM23 28.75C25.2745 28.75 27.4979 28.0755 29.3891 26.8119C31.2802 25.5483 32.7542 23.7522 33.6246 21.6509C34.495 19.5495 34.7228 17.2372 34.279 15.0065C33.8353 12.7757 32.74 10.7266 31.1317 9.11828C29.5234 7.50997 27.4743 6.4147 25.2435 5.97097C23.0128 5.52724 20.7005 5.75498 18.5991 6.62539C16.4978 7.4958 14.7017 8.96978 13.4381 10.8609C12.1745 12.7521 11.5 14.9755 11.5 17.25C11.5 20.3 12.7116 23.2251 14.8683 25.3817C17.0249 27.5384 19.95 28.75 23 28.75ZM23 11.5C24.1372 11.5 25.2489 11.8372 26.1945 12.4691C27.1401 13.1009 27.8771 13.9989 28.3123 15.0496C28.7475 16.1002 28.8614 17.2564 28.6395 18.3718C28.4177 19.4872 27.87 20.5117 27.0659 21.3159C26.2617 22.12 25.2372 22.6677 24.1218 22.8895C23.0064 23.1114 21.8502 22.9975 20.7996 22.5623C19.7489 22.1271 18.8509 21.3901 18.2191 20.4445C17.5872 19.499 17.25 18.3872 17.25 17.25C17.25 15.725 17.8558 14.2625 18.9341 13.1841C20.0125 12.1058 21.475 11.5 23 11.5ZM77.625 71.875H60.375C58.0875 71.875 55.8937 72.7837 54.2762 74.4012C52.6587 76.0187 51.75 78.2125 51.75 80.5V86.25H57.5V80.5C57.5 79.7375 57.8029 79.0062 58.3421 78.4671C58.8812 77.9279 59.6125 77.625 60.375 77.625H77.625C78.3875 77.625 79.1188 77.9279 79.6579 78.4671C80.1971 79.0062 80.5 79.7375 80.5 80.5V86.25H86.25V80.5C86.25 78.2125 85.3413 76.0187 83.7238 74.4012C82.1063 72.7837 79.9125 71.875 77.625 71.875ZM57.5 57.5C57.5 59.7745 58.1745 61.9979 59.4381 63.8891C60.7017 65.7802 62.4978 67.2542 64.5991 68.1246C66.7005 68.995 69.0128 69.2228 71.2435 68.779C73.4743 68.3353 75.5234 67.24 77.1317 65.6317C78.74 64.0234 79.8353 61.9743 80.279 59.7435C80.7228 57.5128 80.495 55.2005 79.6246 53.0991C78.7542 50.9978 77.2802 49.2017 75.3891 47.9381C73.4979 46.6745 71.2745 46 69 46C65.95 46 63.0249 47.2116 60.8683 49.3683C58.7116 51.5249 57.5 54.45 57.5 57.5ZM74.75 57.5C74.75 58.6372 74.4128 59.749 73.781 60.6945C73.1491 61.6401 72.2511 62.3771 71.2004 62.8123C70.1498 63.2475 68.9936 63.3614 67.8782 63.1395C66.7628 62.9177 65.7383 62.37 64.9341 61.5659C64.13 60.7617 63.5823 59.7372 63.3605 58.6218C63.1386 57.5064 63.2525 56.3503 63.6877 55.2996C64.1229 54.2489 64.8599 53.3509 65.8055 52.7191C66.7511 52.0872 67.8628 51.75 69 51.75C70.525 51.75 71.9875 52.3558 73.0659 53.4341C74.1442 54.5125 74.75 55.975 74.75 57.5Z" fill="#FAF6FE"/>
</svg>
