<svg width="25" height="25" viewBox="0 0 25 25" fill="none" xmlns="http://www.w3.org/2000/svg">
<g clip-path="url(#clip0_349_352)">
<path d="M17.7085 5.20833V18.2854L12.5002 15.3094L7.29183 18.2854V5.20833H17.7085ZM17.7085 3.125H7.29183C6.73929 3.125 6.20939 3.34449 5.81869 3.73519C5.42799 4.12589 5.2085 4.6558 5.2085 5.20833V21.875L12.5002 17.7083L19.7918 21.875V5.20833C19.7918 4.6558 19.5723 4.12589 19.1816 3.73519C18.7909 3.34449 18.261 3.125 17.7085 3.125Z" fill="black"/>
<path d="M17.7085 3.125H7.29183C6.73929 3.125 6.20939 3.34449 5.81869 3.73519C5.42799 4.12589 5.2085 4.6558 5.2085 5.20833V21.875L12.5002 17.7083L19.7918 21.875V5.20833C19.7918 4.6558 19.5723 4.12589 19.1816 3.73519C18.7909 3.34449 18.261 3.125 17.7085 3.125Z" fill="black"/>
</g>
<defs>
<clipPath id="clip0_349_352">
<rect width="25" height="25" fill="white"/>
</clipPath>
</defs>
</svg>
