<svg width="50" height="50" viewBox="0 0 50 50" fill="none" xmlns="http://www.w3.org/2000/svg">
<g clip-path="url(#clip0_44_65)">
<path fill-rule="evenodd" clip-rule="evenodd" d="M35.7036 0.785626C36.0785 0.409583 36.5568 0.153469 37.0776 0.049816C37.5984 -0.0538367 38.1382 -0.00034952 38.6286 0.203483L46.225 3.35348C46.8801 3.62398 47.4013 4.14309 47.6744 4.7971C47.9475 5.45111 47.9503 6.18671 47.6821 6.84277L44.5786 14.4392C44.3781 14.9297 44.0366 15.3498 43.5973 15.6461C43.158 15.9425 42.6407 16.102 42.1107 16.1043C41.5808 16.1066 41.0621 15.9516 40.6203 15.659C40.1784 15.3665 39.8333 14.9494 39.6286 14.4606L38.4036 11.5321L7.55357 24.7142C7.22996 24.8526 6.88226 24.9258 6.53033 24.9298C6.1784 24.9338 5.82914 24.8684 5.50247 24.7374C5.17581 24.6064 4.87815 24.4124 4.62648 24.1663C4.37481 23.9203 4.17407 23.6271 4.03571 23.3035C3.89736 22.9799 3.8241 22.6322 3.82011 22.2802C3.81613 21.9283 3.8815 21.579 4.0125 21.2524C4.1435 20.9257 4.33755 20.6281 4.58359 20.3764C4.82962 20.1247 5.12281 19.924 5.44643 19.7856L36.3357 6.5892L35.1321 3.7142C34.9262 3.22442 34.8706 2.68446 34.9723 2.16298C35.0741 1.6415 35.3286 1.16206 35.7036 0.785626ZM45.5357 19.5713C46.4829 19.5713 47.3913 19.9476 48.0611 20.6174C48.7309 21.2872 49.1071 22.1956 49.1071 23.1428V48.1428C49.1071 48.6164 48.919 49.0706 48.5841 49.4055C48.2492 49.7403 47.795 49.9285 47.3214 49.9285H38.3929C37.9193 49.9285 37.465 49.7403 37.1302 49.4055C36.7953 49.0706 36.6071 48.6164 36.6071 48.1428V23.1428C36.6071 22.1956 36.9834 21.2872 37.6532 20.6174C38.323 19.9476 39.2314 19.5713 40.1786 19.5713H45.5357ZM30.2036 25.9713C29.5334 25.3028 28.6252 24.9277 27.6786 24.9285H22.3214C21.3742 24.9285 20.4658 25.3048 19.796 25.9745C19.1263 26.6443 18.75 27.5527 18.75 28.4999V48.1428C18.75 48.6164 18.9381 49.0706 19.273 49.4055C19.6079 49.7403 20.0621 49.9285 20.5357 49.9285H29.4643C29.9379 49.9285 30.3921 49.7403 30.727 49.4055C31.0619 49.0706 31.25 48.6164 31.25 48.1428V28.4999C31.2504 28.0303 31.1581 27.5653 30.9786 27.1314C30.799 26.6975 30.5357 26.3033 30.2036 25.9713ZM9.82143 30.2856C10.7686 30.2856 11.677 30.6619 12.3468 31.3317C13.0166 32.0014 13.3929 32.9099 13.3929 33.8571V48.1428C13.3929 48.6164 13.2047 49.0706 12.8698 49.4055C12.5349 49.7403 12.0807 49.9285 11.6071 49.9285H2.67857C2.20497 49.9285 1.75077 49.7403 1.41588 49.4055C1.08099 49.0706 0.892857 48.6164 0.892857 48.1428V33.8571C0.892857 32.9099 1.26913 32.0014 1.9389 31.3317C2.60868 30.6619 3.51708 30.2856 4.46429 30.2856H9.82143Z" fill="#5C2785"/>
</g>
<defs>
<clipPath id="clip0_44_65">
<rect width="50" height="50" fill="white"/>
</clipPath>
</defs>
</svg>
