<svg width="41" height="40" viewBox="0 0 41 40" fill="none" xmlns="http://www.w3.org/2000/svg">
<g clip-path="url(#clip0_288_96)">
<path fill-rule="evenodd" clip-rule="evenodd" d="M10.4999 11.6666C10.4999 9.45645 11.3779 7.33683 12.9407 5.77403C14.5035 4.21123 16.6231 3.33325 18.8333 3.33325C21.0434 3.33325 23.163 4.21123 24.7258 5.77403C26.2886 7.33683 27.1666 9.45645 27.1666 11.6666C27.1666 13.8767 26.2886 15.9963 24.7258 17.5591C23.163 19.1219 21.0434 19.9999 18.8333 19.9999C16.6231 19.9999 14.5035 19.1219 12.9407 17.5591C11.3779 15.9963 10.4999 13.8767 10.4999 11.6666ZM8.53659 24.4533C11.2083 22.8233 14.8416 21.6666 18.8333 21.6666C19.5783 21.6666 20.3116 21.7066 21.0266 21.7833C21.3129 21.814 21.5863 21.9183 21.8203 22.0861C22.0542 22.254 22.2407 22.4795 22.3616 22.7409C22.4824 23.0022 22.5335 23.2904 22.5099 23.5774C22.4862 23.8643 22.3886 24.1402 22.2266 24.3783C21.0976 26.0353 20.4957 27.9948 20.4999 29.9999C20.4999 31.5333 20.8449 32.9833 21.4583 34.2783C21.5778 34.5305 21.632 34.8088 21.6159 35.0875C21.5999 35.3662 21.5141 35.6364 21.3665 35.8733C21.2188 36.1102 21.014 36.3062 20.7709 36.4434C20.5277 36.5805 20.254 36.6544 19.9749 36.6583C19.5983 36.6633 19.2166 36.6666 18.8333 36.6666C15.1183 36.6666 11.6083 36.4333 8.97825 35.7366C7.66992 35.3899 6.43825 34.8933 5.50492 34.1433C4.51659 33.3499 3.83325 32.2416 3.83325 30.8333C3.83325 29.5216 4.42992 28.2949 5.23992 27.2683C6.06325 26.2266 7.20159 25.2683 8.53659 24.4516V24.4533ZM29.6666 26.6666C29.0035 26.6666 28.3677 26.93 27.8988 27.3988C27.43 27.8677 27.1666 28.5035 27.1666 29.1666C27.1666 29.8296 27.43 30.4655 27.8988 30.9344C28.3677 31.4032 29.0035 31.6666 29.6666 31.6666C30.3296 31.6666 30.9655 31.4032 31.4344 30.9344C31.9032 30.4655 32.1666 29.8296 32.1666 29.1666C32.1666 28.5035 31.9032 27.8677 31.4344 27.3988C30.9655 26.93 30.3296 26.6666 29.6666 26.6666ZM23.8333 29.1666C23.8339 28.2791 24.0371 27.4034 24.4273 26.6063C24.8175 25.8091 25.3844 25.1115 26.085 24.5666C26.7855 24.0217 27.6011 23.6438 28.4698 23.4617C29.3384 23.2796 30.2371 23.2981 31.0975 23.5158C31.9579 23.7335 32.7573 24.1447 33.4348 24.718C34.1123 25.2913 34.65 26.0117 35.0071 26.8242C35.3641 27.6368 35.531 28.5201 35.4951 29.4069C35.4592 30.2937 35.2215 31.1606 34.7999 31.9416L36.1899 33.3333C36.3491 33.487 36.4761 33.6709 36.5634 33.8742C36.6508 34.0776 36.6967 34.2963 36.6987 34.5176C36.7006 34.7389 36.6584 34.9583 36.5746 35.1632C36.4908 35.368 36.3671 35.5541 36.2106 35.7106C36.0541 35.8671 35.868 35.9908 35.6632 36.0746C35.4583 36.1584 35.2389 36.2006 35.0176 36.1987C34.7963 36.1967 34.5776 36.1508 34.3742 36.0634C34.1709 35.9761 33.987 35.8491 33.8333 35.6899L32.4416 34.2983C31.553 34.7788 30.5547 35.0204 29.5447 34.9993C28.5347 34.9782 27.5474 34.6951 26.6796 34.1778C25.8119 33.6605 25.0933 32.9267 24.5944 32.0483C24.0954 31.1698 23.8331 30.1768 23.8333 29.1666Z" fill="#5C2785"/>
</g>
<defs>
<clipPath id="clip0_288_96">
<rect width="40" height="40" fill="white" transform="translate(0.5)"/>
</clipPath>
</defs>
</svg>
