<svg width="41" height="40" viewBox="0 0 41 40" fill="none" xmlns="http://www.w3.org/2000/svg">
<path fill-rule="evenodd" clip-rule="evenodd" d="M10.4999 11.6668C10.4999 9.45669 11.3779 7.33708 12.9407 5.77427C14.5035 4.21147 16.6231 3.3335 18.8333 3.3335C21.0434 3.3335 23.163 4.21147 24.7258 5.77427C26.2886 7.33708 27.1666 9.45669 27.1666 11.6668C27.1666 13.877 26.2886 15.9966 24.7258 17.5594C23.163 19.1222 21.0434 20.0002 18.8333 20.0002C16.6231 20.0002 14.5035 19.1222 12.9407 17.5594C11.3779 15.9966 10.4999 13.877 10.4999 11.6668ZM8.53659 24.4535C11.2083 22.8235 14.8416 21.6668 18.8333 21.6668C19.5783 21.6668 20.3116 21.7068 21.0266 21.7835C21.3129 21.8142 21.5863 21.9186 21.8203 22.0864C22.0542 22.2542 22.2407 22.4798 22.3616 22.7411C22.4824 23.0025 22.5335 23.2906 22.5099 23.5776C22.4862 23.8645 22.3886 24.1405 22.2266 24.3785C21.0976 26.0355 20.4957 27.9951 20.4999 30.0002C20.4999 31.5335 20.8449 32.9835 21.4583 34.2785C21.5778 34.5308 21.632 34.809 21.6159 35.0877C21.5999 35.3664 21.5141 35.6366 21.3665 35.8735C21.2188 36.1104 21.014 36.3065 20.7709 36.4436C20.5277 36.5808 20.254 36.6547 19.9749 36.6585C19.5983 36.6635 19.2166 36.6668 18.8333 36.6668C15.1183 36.6668 11.6083 36.4335 8.97825 35.7368C7.66992 35.3902 6.43825 34.8935 5.50492 34.1435C4.51659 33.3502 3.83325 32.2418 3.83325 30.8335C3.83325 29.5218 4.42992 28.2952 5.23992 27.2685C6.06325 26.2268 7.20159 25.2685 8.53659 24.4518V24.4535ZM29.6666 26.6668C29.0035 26.6668 28.3677 26.9302 27.8988 27.3991C27.43 27.8679 27.1666 28.5038 27.1666 29.1668C27.1666 29.8299 27.43 30.4658 27.8988 30.9346C28.3677 31.4034 29.0035 31.6668 29.6666 31.6668C30.3296 31.6668 30.9655 31.4034 31.4344 30.9346C31.9032 30.4658 32.1666 29.8299 32.1666 29.1668C32.1666 28.5038 31.9032 27.8679 31.4344 27.3991C30.9655 26.9302 30.3296 26.6668 29.6666 26.6668ZM23.8333 29.1668C23.8339 28.2793 24.0371 27.4036 24.4273 26.6065C24.8175 25.8094 25.3844 25.1118 26.085 24.5668C26.7855 24.0219 27.6011 23.644 28.4698 23.4619C29.3384 23.2798 30.2371 23.2983 31.0975 23.5161C31.9579 23.7338 32.7573 24.1449 33.4348 24.7183C34.1123 25.2916 34.65 26.0119 35.0071 26.8245C35.3641 27.637 35.531 28.5203 35.4951 29.4071C35.4592 30.2939 35.2215 31.1608 34.7999 31.9418L36.1899 33.3335C36.3491 33.4872 36.4761 33.6712 36.5634 33.8745C36.6508 34.0778 36.6967 34.2965 36.6987 34.5178C36.7006 34.7391 36.6584 34.9586 36.5746 35.1634C36.4908 35.3682 36.3671 35.5543 36.2106 35.7108C36.0541 35.8673 35.868 35.9911 35.6632 36.0749C35.4583 36.1587 35.2389 36.2008 35.0176 36.1989C34.7963 36.197 34.5776 36.151 34.3742 36.0637C34.1709 35.9763 33.987 35.8493 33.8333 35.6902L32.4416 34.2985C31.553 34.7791 30.5547 35.0207 29.5447 34.9996C28.5347 34.9784 27.5474 34.6954 26.6796 34.1781C25.8119 33.6608 25.0933 32.927 24.5944 32.0485C24.0954 31.1701 23.8331 30.1771 23.8333 29.1668Z" fill="#5C2785"/>
</svg>
