<svg width="216" height="53" viewBox="0 0 216 53" fill="none" xmlns="http://www.w3.org/2000/svg">
<path d="M22.2754 38.3939C22.1922 38.7148 20.1447 45.9609 8.75004 45.9609C8.40194 45.9609 8.0681 45.83 7.82196 45.5971C7.57582 45.3641 7.43754 45.0481 7.43754 44.7187C7.43754 33.9344 15.1069 31.9966 15.4329 31.92C15.7682 31.8464 16.1206 31.9005 16.4142 32.0705C16.7078 32.2404 16.9191 32.5128 17.0026 32.8288C17.0861 33.1449 17.0351 33.4793 16.8605 33.7601C16.686 34.0408 16.4019 34.2455 16.0694 34.3299C15.8507 34.3858 10.6357 35.7956 10.1063 43.4392C18.2744 42.9279 19.7138 37.8494 19.7313 37.7956C19.8157 37.4757 20.0309 37.2007 20.3296 37.0311C20.6282 36.8614 20.9858 36.811 21.3238 36.8908C21.6617 36.9707 21.9523 37.1744 22.1316 37.4571C22.3109 37.7397 22.3641 38.0782 22.2797 38.398L22.2754 38.3939ZM42.735 24.2495L41.5625 25.3571V37.6072C41.5634 37.9876 41.4845 38.3644 41.3306 38.7159C41.1766 39.0673 40.9507 39.3864 40.6657 39.6547L33.1516 46.7662C32.7498 47.1462 32.2443 47.4129 31.6915 47.5366C31.1387 47.6603 30.5605 47.636 30.0214 47.4665C29.4824 47.2971 29.0038 46.989 28.6391 46.5769C28.2744 46.1648 28.038 45.6647 27.9563 45.1328L26.7619 37.0275L16.8832 27.6717L8.32348 26.5414C7.76003 26.4659 7.22993 26.2434 6.79265 25.8987C6.35537 25.5541 6.02819 25.1009 5.84783 24.5901C5.66747 24.0793 5.64106 23.5311 5.77155 23.0068C5.90204 22.4826 6.18428 22.0032 6.5866 21.6223L14.1007 14.5108C14.3843 14.2413 14.7215 14.0278 15.0928 13.8824C15.4642 13.7371 15.8623 13.6628 16.2641 13.664H29.2075L30.3779 12.5564C36.0894 7.15081 42.9713 6.91893 45.6641 7.07006C46.4093 7.11361 47.112 7.41327 47.6401 7.91271C48.1682 8.41215 48.4853 9.07696 48.5319 9.78217C48.6916 12.3307 48.4444 18.8398 42.735 24.2495ZM8.69098 24.0818L17.0341 25.1832L26.5825 16.1484H16.2641C16.1483 16.1488 16.0373 16.1928 15.9557 16.2705L8.44379 23.3779C8.38793 23.4312 8.34845 23.498 8.32957 23.5709C8.31069 23.6438 8.31312 23.7202 8.3366 23.792C8.35885 23.868 8.40437 23.9361 8.46743 23.9877C8.53049 24.0393 8.60828 24.072 8.69098 24.0818ZM38.9375 27.8415L29.3891 36.8784L30.5529 44.7787C30.5649 44.8547 30.599 44.9261 30.6515 44.9848C30.7039 45.0434 30.7726 45.0872 30.8497 45.111C30.9269 45.1349 31.0096 45.1379 31.0885 45.1198C31.1675 45.1017 31.2395 45.0632 31.2966 45.0085L38.8085 37.8991C38.8906 37.8218 38.9371 37.7168 38.9375 37.6072V27.8415ZM45.9113 9.93745C45.9028 9.83964 45.8579 9.74786 45.7846 9.67847C45.7113 9.60908 45.6143 9.56659 45.511 9.55858C43.0673 9.41014 40.6183 9.75825 38.3285 10.5795C36.0387 11.4008 33.961 12.6763 32.235 14.3203L19.3572 26.4999L28 34.6797L39.3225 23.9659L40.8779 22.4939C42.6141 20.8615 43.9615 18.8966 44.8297 16.731C45.6978 14.5653 46.0666 12.249 45.9113 9.93745Z" fill="#5C2785"/>
<path d="M22.75 31.8794L33.25 21.6213" stroke="#5C2785" stroke-width="2"/>
<path d="M38.375 19.2339C38.375 20.7842 37.0819 22.0806 35.4375 22.0806C33.7931 22.0806 32.5 20.7842 32.5 19.2339C32.5 17.6835 33.7931 16.3871 35.4375 16.3871C37.0819 16.3871 38.375 17.6835 38.375 19.2339Z" stroke="#5C2785" stroke-width="2"/>
<path d="M67.484 29.864C66.548 29.864 65.756 29.84 65.108 29.792C64.484 29.72 63.656 29.612 62.624 29.468L62.588 33.248C62.564 33.896 62.552 34.82 62.552 36.02C62.552 36.644 62.372 37.136 62.012 37.496C61.676 37.832 61.292 38 60.86 38C60.068 38 59.48 37.904 59.096 37.712C58.712 37.496 58.52 37.124 58.52 36.596C58.52 35.9 58.58 34.916 58.7 33.644C58.964 30.908 59.096 28.1 59.096 25.22C59.096 22.532 59.012 20 58.844 17.624C58.868 17.288 59.036 16.904 59.348 16.472C59.684 16.04 60.104 15.8 60.608 15.752C61.16 15.752 62.036 15.656 63.236 15.464C64.484 15.272 65.432 15.176 66.08 15.176C68.048 15.176 69.572 15.368 70.652 15.752C71.756 16.136 72.86 16.772 73.964 17.66C75.164 19.532 75.764 20.852 75.764 21.62C75.764 23.228 75.44 24.656 74.792 25.904C74.144 27.152 73.196 28.124 71.948 28.82C70.7 29.516 69.212 29.864 67.484 29.864ZM66.656 18.236C65.888 18.236 65.216 18.284 64.64 18.38C64.088 18.452 63.416 18.584 62.624 18.776C62.72 20.984 62.768 22.592 62.768 23.6C62.768 24.632 62.732 25.496 62.66 26.192C63.692 26.408 64.508 26.552 65.108 26.624C65.708 26.672 66.38 26.696 67.124 26.696C68.9 26.696 70.148 26.24 70.868 25.328C71.612 24.392 71.984 23.312 71.984 22.088C71.984 21.728 71.876 21.284 71.66 20.756C71.444 20.228 71.252 19.88 71.084 19.712C70.436 19.136 69.8 18.752 69.176 18.56C68.576 18.344 67.736 18.236 66.656 18.236ZM93.6943 36.272C93.6943 36.8 93.4063 37.244 92.8303 37.604C92.2783 37.964 91.7623 38.144 91.2823 38.144C90.3703 38.144 89.6383 38.036 89.0863 37.82C88.5583 37.58 88.0663 37.148 87.6103 36.524C86.9863 37.076 86.1343 37.496 85.0543 37.784C83.9743 38.048 82.9783 38.18 82.0663 38.18C80.5783 38.18 79.3543 37.784 78.3943 36.992C77.4343 36.176 76.9543 34.988 76.9543 33.428C76.9543 32.756 77.1343 32.144 77.4943 31.592C77.8543 31.016 78.3463 30.512 78.9703 30.08C79.6663 29.624 80.4583 29.276 81.3463 29.036C82.2343 28.772 83.1583 28.64 84.1183 28.64C84.6223 28.64 85.2223 28.736 85.9183 28.928C86.6143 29.12 87.1543 29.324 87.5383 29.54V28.964C87.5383 27.668 87.2263 26.78 86.6023 26.3C85.9783 25.796 84.9703 25.544 83.5783 25.544C83.1703 25.544 82.7623 25.628 82.3543 25.796C81.9703 25.964 81.5263 26.192 81.0223 26.48C80.3503 26.84 79.7143 27.02 79.1143 27.02C78.8983 27.02 78.6943 26.876 78.5023 26.588C78.3103 26.276 78.2143 26 78.2143 25.76C78.2143 25.064 78.5383 24.464 79.1863 23.96C79.8583 23.456 80.6503 23.084 81.5623 22.844C82.4743 22.58 83.2903 22.448 84.0103 22.448C84.7303 22.448 85.5583 22.592 86.4943 22.88C87.4303 23.144 88.1983 23.516 88.7983 23.996C89.5183 24.62 90.0703 25.352 90.4543 26.192C90.8623 27.008 91.0663 27.908 91.0663 28.892C91.0663 29.204 91.0423 29.672 90.9943 30.296C90.9463 30.968 90.9223 31.544 90.9223 32.024C90.9223 32.24 90.8983 32.564 90.8503 32.996C90.8023 33.524 90.7783 33.944 90.7783 34.256C90.7783 34.544 90.8863 34.796 91.1023 35.012C91.3183 35.204 91.5703 35.3 91.8583 35.3L92.8663 35.264C93.1303 35.264 93.3343 35.36 93.4783 35.552C93.6223 35.744 93.6943 35.984 93.6943 36.272ZM82.1023 35.336C83.1343 35.336 83.9983 35.228 84.6943 35.012C85.3903 34.796 86.2303 34.4 87.2143 33.824C87.3103 33.416 87.3703 32.876 87.3943 32.204C86.0743 31.58 84.9823 31.268 84.1183 31.268C83.1343 31.268 82.2583 31.448 81.4903 31.808C80.7223 32.168 80.3383 32.804 80.3383 33.716C80.3383 34.172 80.5303 34.556 80.9143 34.868C81.2983 35.18 81.6943 35.336 82.1023 35.336ZM101.416 36.56C101.416 36.968 101.26 37.328 100.948 37.64C100.636 37.952 100.252 38.108 99.7957 38.108C99.0757 38.108 98.5477 37.976 98.2117 37.712C97.8757 37.424 97.7077 36.908 97.7077 36.164C97.7077 35.276 97.6837 34.112 97.6357 32.672C97.5877 31.472 97.5637 30.464 97.5637 29.648C97.5637 29.264 97.5877 28.76 97.6357 28.136C97.6837 27.56 97.7077 27.128 97.7077 26.84C97.6357 26.384 97.4557 26.012 97.1677 25.724C96.8797 25.412 96.5077 25.256 96.0517 25.256C95.8357 25.256 95.6557 25.16 95.5117 24.968C95.3677 24.752 95.2957 24.536 95.2957 24.32C95.2957 23.768 95.5117 23.348 95.9437 23.06C96.3997 22.772 96.9397 22.628 97.5637 22.628C98.8597 22.628 99.7597 23.396 100.264 24.932C100.888 24.212 101.596 23.636 102.388 23.204C103.204 22.748 103.984 22.52 104.728 22.52C105.616 22.52 106.42 22.76 107.14 23.24C107.884 23.72 108.256 24.368 108.256 25.184C108.256 25.64 108.052 26.108 107.644 26.588C107.26 27.068 106.864 27.308 106.456 27.308C106.24 27.308 106.048 27.26 105.88 27.164C105.736 27.044 105.556 26.876 105.34 26.66C105.1 26.42 104.896 26.252 104.728 26.156C104.56 26.036 104.368 25.976 104.152 25.976C103.768 25.976 103.408 26.036 103.072 26.156C102.736 26.276 102.508 26.42 102.388 26.588C102.004 27.188 101.716 27.728 101.524 28.208C101.356 28.688 101.272 29.204 101.272 29.756C101.272 30.164 101.26 30.488 101.236 30.728L101.2 32.78C101.2 33.092 101.212 33.44 101.236 33.824C101.26 34.208 101.284 34.496 101.308 34.688C101.38 35.336 101.416 35.96 101.416 36.56ZM110.396 25.472C110.06 25.424 109.784 25.292 109.568 25.076C109.376 24.836 109.28 24.548 109.28 24.212C109.28 23.78 109.448 23.42 109.784 23.132C109.856 23.06 109.976 23 110.144 22.952C110.312 22.88 110.444 22.82 110.54 22.772C111.068 22.604 111.404 22.472 111.548 22.376C112.1 22.04 112.472 21.488 112.664 20.72C112.856 19.808 112.976 19.184 113.024 18.848C113.072 18.32 113.24 17.924 113.528 17.66C113.84 17.372 114.224 17.228 114.68 17.228C115.28 17.228 115.7 17.384 115.94 17.696C116.18 18.008 116.3 18.584 116.3 19.424C116.3 20.528 116.036 21.572 115.508 22.556C115.844 22.556 116.396 22.532 117.164 22.484C118.316 22.436 119.12 22.412 119.576 22.412C119.984 22.412 120.332 22.52 120.62 22.736C120.932 22.928 121.088 23.216 121.088 23.6C121.088 24.512 120.668 25.052 119.828 25.22C119.06 25.436 117.668 25.568 115.652 25.616C115.484 27.968 115.4 29.828 115.4 31.196C115.4 32.036 115.436 32.636 115.508 32.996C115.652 33.74 115.892 34.292 116.228 34.652C116.588 34.988 117.116 35.156 117.812 35.156C118.148 35.156 118.652 35.072 119.324 34.904C119.732 34.784 120.056 34.724 120.296 34.724C120.608 34.724 120.848 34.832 121.016 35.048C121.184 35.264 121.268 35.552 121.268 35.912C121.268 36.56 120.848 37.1 120.008 37.532C119.168 37.94 118.172 38.144 117.02 38.144C116.3 38.144 115.592 37.976 114.896 37.64C114.2 37.28 113.612 36.848 113.132 36.344C113.036 36.296 112.892 36.032 112.7 35.552C112.532 35.072 112.364 34.544 112.196 33.968C112.124 33.68 112.088 32.984 112.088 31.88C112.088 30.824 112.16 29 112.304 26.408L112.34 25.616C112.172 25.616 111.86 25.604 111.404 25.58C110.948 25.532 110.612 25.496 110.396 25.472ZM140.277 35.228C140.397 35.276 140.589 35.336 140.853 35.408C141.117 35.48 141.309 35.552 141.429 35.624C141.549 35.696 141.609 35.804 141.609 35.948C141.633 36.524 141.417 37.004 140.961 37.388C140.529 37.748 140.013 37.928 139.413 37.928C138.477 37.928 137.745 37.676 137.217 37.172C136.689 36.668 136.305 35.9 136.065 34.868C135.969 34.46 135.921 33.896 135.921 33.176C135.921 32.768 135.945 32.108 135.993 31.196C136.041 30.236 136.065 29.468 136.065 28.892C136.065 27.86 135.957 27.08 135.741 26.552C135.525 26 135.009 25.724 134.193 25.724C133.353 25.724 132.597 26.06 131.925 26.732C131.277 27.404 130.725 28.412 130.269 29.756C129.645 31.628 129.297 34.112 129.225 37.208C129.225 37.376 129.045 37.58 128.685 37.82C128.349 38.036 127.941 38.144 127.461 38.144C126.573 38.144 126.021 37.676 125.805 36.74L125.769 36.128C125.769 35.912 125.793 35.66 125.841 35.372C126.129 33.692 126.273 32.228 126.273 30.98C126.273 30.428 126.261 29.996 126.237 29.684L126.201 27.992C126.201 27.416 126.057 26.864 125.769 26.336C125.481 25.784 125.145 25.508 124.761 25.508C124.641 25.508 124.473 25.556 124.257 25.652C124.041 25.724 123.861 25.76 123.717 25.76C123.477 25.76 123.213 25.64 122.925 25.4C122.661 25.16 122.529 24.908 122.529 24.644C122.529 24.14 122.697 23.732 123.033 23.42C123.393 23.132 123.741 22.904 124.077 22.736C124.437 22.568 124.845 22.484 125.301 22.484C125.685 22.484 125.997 22.52 126.237 22.592C126.477 22.664 126.801 22.82 127.209 23.06C127.449 23.18 127.725 23.516 128.037 24.068C128.349 24.62 128.589 25.4 128.757 26.408C129.237 25.52 130.041 24.584 131.169 23.6C132.009 22.832 133.221 22.448 134.805 22.448C136.245 22.448 137.385 22.976 138.225 24.032C139.065 25.064 139.485 26.492 139.485 28.316C139.485 28.676 139.461 29.264 139.413 30.08C139.341 30.728 139.305 31.412 139.305 32.132C139.305 33.812 139.629 34.844 140.277 35.228ZM143.927 29.756C143.927 28.292 144.251 27.08 144.899 26.12C145.547 25.136 146.447 24.212 147.599 23.348C147.935 23.108 148.499 22.904 149.291 22.736C150.083 22.544 150.779 22.448 151.379 22.448C152.099 22.448 152.855 22.604 153.647 22.916C154.463 23.204 155.123 23.54 155.627 23.924C156.515 24.572 157.127 25.328 157.463 26.192C157.799 27.032 157.967 28.04 157.967 29.216C157.967 29.72 157.679 30.212 157.103 30.692C156.551 31.148 155.951 31.376 155.303 31.376L153.935 31.34C153.239 31.34 152.243 31.364 150.947 31.412L150.191 31.448C149.663 31.496 149.267 31.52 149.003 31.52C148.619 31.52 148.091 31.472 147.419 31.376C147.515 32.504 147.935 33.392 148.679 34.04C149.423 34.664 150.227 34.976 151.091 34.976C152.603 34.976 153.659 34.676 154.259 34.076C154.763 33.716 155.099 33.488 155.267 33.392C155.435 33.296 155.699 33.248 156.059 33.248C156.443 33.248 156.779 33.428 157.067 33.788C157.355 34.148 157.499 34.508 157.499 34.868C157.499 35.276 157.247 35.696 156.743 36.128C156.263 36.536 155.603 36.968 154.763 37.424C154.307 37.616 153.683 37.784 152.891 37.928C152.099 38.072 151.439 38.144 150.911 38.144C150.071 38.144 149.135 37.904 148.103 37.424C147.071 36.92 146.303 36.368 145.799 35.768C145.295 35.168 144.851 34.316 144.467 33.212C144.107 32.108 143.927 30.956 143.927 29.756ZM151.091 28.784C152.795 28.784 154.043 28.724 154.835 28.604C154.787 27.908 154.571 27.344 154.187 26.912C153.803 26.456 153.275 26.072 152.603 25.76C152.387 25.664 152.195 25.592 152.027 25.544C151.859 25.496 151.667 25.472 151.451 25.472C150.347 25.472 149.411 25.772 148.643 26.372C147.899 26.972 147.455 27.74 147.311 28.676C148.511 28.748 149.771 28.784 151.091 28.784ZM166.701 36.56C166.701 36.968 166.545 37.328 166.233 37.64C165.921 37.952 165.537 38.108 165.081 38.108C164.361 38.108 163.833 37.976 163.497 37.712C163.161 37.424 162.993 36.908 162.993 36.164C162.993 35.276 162.969 34.112 162.921 32.672C162.873 31.472 162.849 30.464 162.849 29.648C162.849 29.264 162.873 28.76 162.921 28.136C162.969 27.56 162.993 27.128 162.993 26.84C162.921 26.384 162.741 26.012 162.453 25.724C162.165 25.412 161.793 25.256 161.337 25.256C161.121 25.256 160.941 25.16 160.797 24.968C160.653 24.752 160.581 24.536 160.581 24.32C160.581 23.768 160.797 23.348 161.229 23.06C161.685 22.772 162.225 22.628 162.849 22.628C164.145 22.628 165.045 23.396 165.549 24.932C166.173 24.212 166.881 23.636 167.673 23.204C168.489 22.748 169.269 22.52 170.013 22.52C170.901 22.52 171.705 22.76 172.425 23.24C173.169 23.72 173.541 24.368 173.541 25.184C173.541 25.64 173.337 26.108 172.929 26.588C172.545 27.068 172.149 27.308 171.741 27.308C171.525 27.308 171.333 27.26 171.165 27.164C171.021 27.044 170.841 26.876 170.625 26.66C170.385 26.42 170.181 26.252 170.013 26.156C169.845 26.036 169.653 25.976 169.437 25.976C169.053 25.976 168.693 26.036 168.357 26.156C168.021 26.276 167.793 26.42 167.673 26.588C167.289 27.188 167.001 27.728 166.809 28.208C166.641 28.688 166.557 29.204 166.557 29.756C166.557 30.164 166.545 30.488 166.521 30.728L166.485 32.78C166.485 33.092 166.497 33.44 166.521 33.824C166.545 34.208 166.569 34.496 166.593 34.688C166.665 35.336 166.701 35.96 166.701 36.56ZM180.145 17.12C180.145 17.816 180.121 18.74 180.073 19.892L180.037 22.232C180.037 24.512 180.205 26.42 180.541 27.956C181.021 30.116 181.741 31.784 182.701 32.96C183.589 33.992 184.681 34.508 185.977 34.508C186.985 34.508 187.885 34.208 188.677 33.608C189.469 32.984 190.081 32.216 190.513 31.304C191.233 29.816 191.593 27.98 191.593 25.796C191.593 24.476 191.509 22.916 191.341 21.116C191.197 19.1 191.125 17.588 191.125 16.58C191.125 16.052 191.437 15.716 192.061 15.572C192.685 15.404 193.333 15.32 194.005 15.32C194.245 15.32 194.521 15.476 194.833 15.788C195.145 16.1 195.301 16.436 195.301 16.796C195.301 17.516 195.265 18.2 195.193 18.848C195.145 19.568 195.121 20.072 195.121 20.36C195.121 21.272 195.169 22.544 195.265 24.176C195.289 24.584 195.313 25.076 195.337 25.652C195.361 26.228 195.373 26.888 195.373 27.632C195.373 29.264 194.977 30.896 194.185 32.528C193.417 34.136 192.337 35.468 190.945 36.524C189.553 37.556 187.981 38.072 186.229 38.072C183.541 38.072 181.441 37.208 179.929 35.48C178.417 33.728 177.385 31.472 176.833 28.712C176.521 27.128 176.317 25.472 176.221 23.744C176.149 22.016 176.113 19.7 176.113 16.796C176.113 16.412 176.293 16.052 176.653 15.716C177.037 15.38 177.445 15.212 177.877 15.212C179.389 15.212 180.145 15.848 180.145 17.12ZM199.157 25.724C198.917 25.388 198.749 25.1 198.653 24.86C198.557 24.62 198.509 24.32 198.509 23.96C198.509 23.576 198.665 23.252 198.977 22.988C199.313 22.724 199.733 22.592 200.237 22.592C200.741 22.592 201.245 22.784 201.749 23.168C202.253 23.528 202.661 23.996 202.973 24.572C203.477 23.852 204.161 23.336 205.025 23.024C205.889 22.712 206.825 22.556 207.833 22.556C208.937 22.556 209.957 22.892 210.893 23.564C211.853 24.236 212.609 25.1 213.161 26.156C213.713 27.212 213.989 28.268 213.989 29.324C213.989 30.356 213.881 31.28 213.665 32.096C213.449 32.888 213.065 33.692 212.513 34.508C211.889 35.372 211.049 36.08 209.993 36.632C208.961 37.184 207.725 37.46 206.285 37.46C205.901 37.46 205.433 37.364 204.881 37.172C204.329 36.956 203.873 36.728 203.513 36.488C203.345 38.12 203.261 39.536 203.261 40.736C203.261 41.456 203.297 42.14 203.369 42.788C203.417 43.556 203.441 44.108 203.441 44.444C203.441 44.972 203.261 45.356 202.901 45.596C202.541 45.86 202.145 45.992 201.713 45.992C200.849 45.992 200.273 45.752 199.985 45.272C199.721 44.816 199.589 44.156 199.589 43.292C199.685 41.228 199.805 39.32 199.949 37.568C200.117 35.048 200.201 31.952 200.201 28.28C200.201 27.992 200.081 27.572 199.841 27.02C199.625 26.468 199.397 26.036 199.157 25.724ZM203.657 32.924C203.777 33.38 204.113 33.764 204.665 34.076C205.241 34.364 205.757 34.508 206.213 34.508C207.581 34.508 208.601 34.136 209.273 33.392C209.777 32.864 210.101 32.348 210.245 31.844C210.413 31.34 210.497 30.536 210.497 29.432C210.497 28.568 210.329 27.848 209.993 27.272C209.657 26.672 209.249 26.24 208.769 25.976C208.289 25.688 207.833 25.544 207.401 25.544C206.417 25.544 205.613 25.844 204.989 26.444C204.389 27.02 204.005 27.812 203.837 28.82C203.717 29.612 203.657 30.98 203.657 32.924Z" fill="#5C2785"/>
</svg>
