<svg width="1440" height="837" viewBox="0 0 1440 837" fill="none" xmlns="http://www.w3.org/2000/svg">
<rect x="52" y="602" width="138" height="235" fill="#F3EAFD"/>
<rect x="-11.5" y="533.5" width="132" height="254" stroke="#5C2785" stroke-width="3" stroke-dasharray="8 8"/>
<path d="M84.0855 267.909L282.426 287.701L207.771 472.518L84.0855 267.909Z" stroke="#5C2785" stroke-width="3"/>
<path d="M184.172 174.791L197.807 379.587L-15.4955 222.332L184.172 174.791Z" fill="#F3EAFD"/>
<path d="M1271.01 682.408C1264.05 737.196 1213.99 775.968 1159.2 769.008C1104.41 762.048 1065.64 711.991 1072.6 657.203C1079.56 602.415 1129.62 563.642 1184.41 570.603C1239.2 577.563 1277.97 627.62 1271.01 682.408ZM1099.77 660.654C1094.72 700.437 1122.87 736.785 1162.65 741.839C1202.44 746.893 1238.78 718.739 1243.84 678.956C1248.89 639.173 1220.74 602.826 1180.96 597.772C1141.17 592.718 1104.83 620.871 1099.77 660.654Z" fill="#F3EAFD"/>
<path d="M1392.08 737.102C1385.82 786.412 1340.77 821.307 1291.46 815.042C1242.15 808.778 1207.25 763.727 1213.52 714.418C1219.78 665.108 1264.83 630.213 1314.14 636.478C1363.45 642.742 1398.34 687.793 1392.08 737.102ZM1237.97 717.524C1233.42 753.329 1258.76 786.042 1294.56 790.59C1330.37 795.139 1363.08 769.801 1367.63 733.996C1372.18 698.191 1346.84 665.478 1311.03 660.93C1275.23 656.381 1242.52 681.719 1237.97 717.524Z" fill="#5C2785"/>
<path d="M1489.04 444.126C1482.54 421.455 1467.43 402.041 1446.39 389.314C1425.35 376.587 1399.73 371.366 1374.05 374.573C1348.37 377.781 1324.29 389.21 1306.06 406.842C1287.83 424.474 1276.63 447.174 1274.43 470.932L1307.09 471.986C1308.63 455.356 1316.47 439.466 1329.23 427.123C1341.99 414.781 1358.85 406.78 1376.82 404.535C1394.8 402.29 1412.74 405.945 1427.47 414.854C1442.2 423.763 1452.77 437.352 1457.32 453.222L1489.04 444.126Z" fill="#E9D9FB"/>
<mask id="path-8-inside-1_368_621" fill="white">
<path d="M1492.09 465.7C1484.94 440.762 1469.21 419.154 1447.67 404.693C1426.13 390.232 1400.17 383.85 1374.38 386.673C1348.59 389.497 1324.63 401.344 1306.73 420.122C1288.83 438.901 1278.14 463.402 1276.56 489.296L1309.5 491.313C1310.61 473.187 1318.09 456.037 1330.62 442.892C1343.15 429.747 1359.92 421.454 1377.97 419.477C1396.02 417.501 1414.19 421.969 1429.27 432.091C1444.35 442.214 1455.36 457.339 1460.37 474.796L1492.09 465.7Z"/>
</mask>
<path d="M1492.09 465.7C1484.94 440.762 1469.21 419.154 1447.67 404.693C1426.13 390.232 1400.17 383.85 1374.38 386.673C1348.59 389.497 1324.63 401.344 1306.73 420.122C1288.83 438.901 1278.14 463.402 1276.56 489.296L1309.5 491.313C1310.61 473.187 1318.09 456.037 1330.62 442.892C1343.15 429.747 1359.92 421.454 1377.97 419.477C1396.02 417.501 1414.19 421.969 1429.27 432.091C1444.35 442.214 1455.36 457.339 1460.37 474.796L1492.09 465.7Z" stroke="#5C2785" stroke-width="6" stroke-dasharray="8 8" mask="url(#path-8-inside-1_368_621)"/>
<circle cx="1334" cy="50" r="48.5" fill="#FAF6FE" stroke="#5C2785" stroke-width="3" stroke-dasharray="8 8"/>
<circle cx="1271.5" cy="157.5" r="37.5" fill="#E9D9FB"/>
<circle cx="1284" cy="252" r="25" fill="#5C2785"/>
</svg>
